Coordinates
version=1
nRows=22
nColumns=24
inDegrees=yes

Units are S.I. units (second, meters, Newtons, ...)
Angles are in degrees.

endheader
time	pelvis_tilt	pelvis_list	pelvis_rotation	pelvis_tx	pelvis_ty	pelvis_tz	hip_flexion_r	hip_adduction_r	hip_rotation_r	knee_angle_r	ankle_angle_r	subtalar_angle_r	mtp_angle_r	hip_flexion_l	hip_adduction_l	hip_rotation_l	knee_angle_l	ankle_angle_l	subtalar_angle_l	mtp_angle_l	lumbar_extension	lumbar_bending	lumbar_rotation
      1.35466667	     -4.20108610	    -10.37229686	    -11.74635916	      0.84042614	      0.96427542	      0.36267672	    -15.09973658	     10.72085332	      1.85724591	     -8.59467064	     12.58286709	     -1.24117719	      0.67775228	     34.77265730	    -16.55685387	    -15.22436031	      1.29123103	      3.91653388	     -4.20313624	     -2.79374469	     -7.78877836	     11.92535695	     10.48077144
      1.35883333	     -4.20309883	    -10.33704584	    -12.01598443	      0.84647369	      0.96340324	      0.36293540	    -15.39683974	     10.50819793	      2.01759062	     -8.75439097	     12.51223456	     -1.10573382	      0.71495344	     34.70995116	    -16.69629068	    -15.03176710	      0.77770812	      4.16512249	     -4.32237668	     -2.78120374	     -7.78241667	     11.80418686	     10.51734852
      1.36300000	     -4.09247285	    -10.26512462	    -12.38547847	      0.85250351	      0.96284842	      0.36337048	    -15.79105128	     10.20126027	      2.28185270	     -8.94243025	     12.43526525	     -0.94278912	      0.95585321	     34.44081236	    -16.84703805	    -15.04209367	      0.31640305	      4.33974848	     -4.34890041	     -2.72342934	     -7.93978829	     11.57711179	     11.02212052
      1.36716667	     -4.10091938	    -10.23781945	    -12.64618552	      0.85864783	      0.96201500	      0.36353781	    -16.06948358	      9.98525320	      2.42665118	     -9.11889581	     12.31153284	     -0.78894798	      0.99979797	     34.35716183	    -16.97400191	    -14.85889891	     -0.21748609	      4.55077621	     -4.47402076	     -2.71122030	     -7.92012573	     11.47569836	     11.05353857
      1.37133333	     -3.98691445	    -10.15284720	    -12.99415862	      0.86479957	      0.96151164	      0.36384285	    -16.44127357	      9.64844312	      2.62190864	     -9.33879847	     12.19143195	     -0.57779145	      1.28887700	     34.04525667	    -17.07618957	    -14.88386257	     -0.66273340	      4.68374040	     -4.51626503	     -2.64584617	     -8.06593238	     11.24256806	     11.51955602
      1.37550000	     -3.93530329	    -10.13006310	    -13.28020202	      0.87097302	      0.96086946	      0.36398223	    -16.75871767	      9.40000642	      2.79401112	     -9.55123951	     12.06001868	     -0.36116832	      1.53312254	     33.84149988	    -17.19897702	    -14.80788001	     -1.16560413	      4.80445527	     -4.58309509	     -2.58824183	     -8.13466245	     11.12940103	     11.70351364
      1.37966667	     -3.88164110	    -10.03975855	    -13.58135534	      0.87730684	      0.96030135	      0.36412015	    -17.05364734	      9.06730869	      2.91837579	     -9.78105365	     11.85675855	     -0.13317823	      1.84372601	     33.57209462	    -17.24916890	    -14.78907403	     -1.58546144	      4.87030491	     -4.68342215	     -2.51496337	     -8.16828648	     10.92501558	     11.98010393
      1.38383333	     -3.73014849	     -9.95739797	    -13.88780085	      0.88368044	      0.95997237	      0.36434305	    -17.46564625	      8.71972313	      3.11595210	     -9.96427253	     11.49836583	     -0.08176118	      3.23743211	     33.16970464	    -17.30228110	    -14.92006433	     -1.99111105	      4.89518067	     -4.62400152	     -2.18026885	     -8.31555132	     10.69896026	     12.15943699
      1.38800000	     -3.80502307	     -9.90959297	    -14.12327695	      0.89003896	      0.95917326	      0.36421572	    -17.57949692	      8.46436611	      3.12835490	    -10.29322411	     11.35962364	      0.27126687	      3.41821909	     33.07926489	    -17.34707176	    -14.78740258	     -2.45532668	      4.90744110	     -4.81409314	     -2.13496368	     -8.20760233	     10.61081210	     12.34291993
      1.39216667	     -3.76375231	     -9.79276438	    -14.38461380	      0.89651326	      0.95870090	      0.36417018	    -17.80189525	      8.09791637	      3.16883302	    -10.59627897	     11.08170128	      0.52976689	      3.72930076	     32.77557548	    -17.31400852	    -14.81135992	     -2.79388828	      4.78379131	     -4.99897430	     -2.05341266	     -8.20461844	     10.39911009	     12.55064805
      1.39633333	     -3.66740825	     -9.70047435	    -14.64094509	      0.90297834	      0.95835092	      0.36410679	    -18.06663034	      7.73873419	      3.21736786	    -10.92622697	     10.75546413	      0.77546320	      4.30621927	     32.40887781	    -17.29178849	    -14.88152646	     -3.12639700	      4.66136115	     -5.09427182	     -1.88734125	     -8.27938160	     10.19706750	     12.76022466
      1.40050000	     -3.68709574	     -9.59153775	    -14.87551385	      0.90953279	      0.95785081	      0.36402085	    -18.19688839	      7.40491568	      3.25328797	    -11.27312099	     10.41664767	      0.99454375	      4.68161911	     32.18727949	    -17.25432006	    -14.97492518	     -3.46841470	      4.40924592	     -5.25176547	     -1.77144284	     -8.19111437	     10.02175608	     12.85997433
      1.40466667	     -3.60383362	     -9.50003027	    -15.10238858	      0.91605645	      0.95759044	      0.36390209	    -18.41440271	      7.05519541	      3.27767909	    -11.62857933	      9.93469960	      1.14320474	     11.12928284	     31.83370356	    -17.20982305	    -15.12304329	     -3.77097253	      4.11415409	     -5.36024097	      0.36760743	     -8.24242097	      9.82636921	     13.06012648
      1.40883333	     -3.62516498	     -9.37685115	    -15.28653296	      0.92265202	      0.95717329	      0.36365598	    -18.47986086	      6.71305507	      3.23123454	    -12.06398393	      9.52331088	      1.37087645	     11.16875967	     31.61007077	    -17.11216131	    -15.18218738	     -4.04551282	      3.71761298	     -5.61089600	      0.38567560	     -8.14272638	      9.65135563	     13.10392469
      1.41300000	     -3.59473362	     -9.22129352	    -15.47321298	      0.92927317	      0.95692654	      0.36341493	    -18.56436361	      6.32019138	      3.17591833	    -12.53369757	      9.07517025	      1.62184288	     11.25019065	     31.31092205	    -16.97211824	    -15.30924322	     -4.27912192	      3.22686743	     -5.89247152	      0.41937719	     -8.09460938	      9.41361706	     13.20267233
      1.41716667	     -3.55408931	     -9.06263035	    -15.63336695	      0.93587920	      0.95675201	      0.36312593	    -18.62713014	      5.92979793	      3.09876054	    -13.04635179	      8.58339106	      1.86083253	     11.37574322	     31.01158684	    -16.81184585	    -15.44951824	     -4.49182030	      2.64259617	     -6.20362588	      0.47594045	     -8.05775764	      9.17359116	     13.28686264
      1.42133333	     -3.40982152	     -8.88914095	    -15.74769107	      0.94247491	      0.95680011	      0.36269243	    -18.75940422	      5.49442868	      2.94395216	    -13.59707017	      8.07358984	      2.19988631	     11.67838511	     30.59950057	    -16.58221667	    -15.57417063	     -4.65681396	      1.95502041	     -6.59737660	      0.61693782	     -8.14487134	      8.88908749	     13.40709925
      1.42550000	     -3.42896619	     -8.68569413	    -15.88685712	      0.94913221	      0.95667414	      0.36245069	    -18.69303902	      5.09970698	      2.88005836	    -14.19617540	      7.46447141	      2.28262317	     11.84806791	     30.39581958	    -16.38990237	    -15.77206741	     -4.88230876	      1.25812898	     -6.88296363	      0.69316308	     -8.01356096	      8.60145260	     13.37926454
      1.42966667	     -3.13378854	     -8.43739412	    -15.85557768	      0.95586522	      0.95705787	      0.36178094	    -18.92511275	      4.57974868	      2.53775069	    -14.78056535	      6.82932347	      2.53745529	     13.61295784	     29.84661599	    -15.97550451	    -15.87148649	     -4.96283615	      0.34883919	     -7.35032032	      1.56860689	     -8.21530387	      8.20799073	     13.21853583
      1.43383333	     -3.23268819	     -8.22421868	    -16.02836634	      0.96241640	      0.95696456	      0.36157018	    -18.66910556	      4.19520275	      2.49612908	    -15.54976256	      6.17539104	      2.65179059	     13.80881275	     29.77024271	    -15.81736786	    -16.10510153	     -5.25743512	     -0.39641832	     -7.76025942	      1.65283620	     -8.00119788	      7.93390858	     13.37079010
      1.43800000	     -3.21752559	     -7.97984820	    -16.08978286	      0.96902672	      0.95707588	      0.36117064	    -18.50542328	      3.77351386	      2.33120690	    -16.33401606	      5.46759479	      2.74494915	     14.05184047	     29.59913757	    -15.54842271	    -16.27120876	     -5.52381908	     -1.21322079	     -8.15517174	      1.75707676	     -7.89556345	      7.60038170	     13.38427357
      1.44216667	     -3.07182934	     -7.71439060	    -16.04721829	      0.97561806	      0.95741211	      0.36048985	    -18.43626753	      3.29977466	      2.01167285	    -17.15943663	      4.78116252	      3.03107309	     14.61991547	     29.32331986	    -15.16724878	    -16.34536282	     -5.77245028	     -2.17282625	     -8.76364874	      2.00353795	     -7.94263654	      7.21966673	     13.36065023
